# xmcd CD database file
#
# Track frame offsets:
#	150
#	7533
#	34663
#	39763
#	67830
#	87848
#	121698
#	126238
#	146733
#	171300
#	180443
#	204125
#	219575
#
# Disc length: 3294 seconds
#
# Revision: 0
# Processed by: cddbd v1.5.1PL2 Copyright (c) Steve Scherf et al.
# Submitted via: CDex 1.51
#
DISCID=9b0cdc0d
DTITLE=Satoru Shionoya - Hands Of Guido
DYEAR=2006
DGENRE=Jazz
TTITLE0=Introduction
TTITLE1=According To La Meteo
TTITLE2=Doodle I
TTITLE3=Mr. Tap-man
TTITLE4=Yesterday
TTITLE5=Evening Haze
TTITLE6=Doodle II
TTITLE7=Skinny-Dipper
TTITLE8=Parkside Street
TTITLE9=Azami
TTITLE10=Enharmonie
TTITLE11=4->0->10->5
TTITLE12=Calm
EXTD=YEAR: 2006
EXTT0=
EXTT1=
EXTT2=
EXTT3=
EXTT4=
EXTT5=
EXTT6=
EXTT7=
EXTT8=
EXTT9=
EXTT10=
EXTT11=
EXTT12=
PLAYORDER=
